<?xml version="1.0" encoding="UTF-8"?>
<svg id="Ebene_3" data-name="Ebene 3" xmlns="http://www.w3.org/2000/svg" xmlns:xlink="http://www.w3.org/1999/xlink" viewBox="0 0 539.48 140.04">
  <defs>
    <style>
      .cls-1 {
        fill: none;
      }

      .cls-1, .cls-2, .cls-3, .cls-4, .cls-5, .cls-6 {
        stroke-width: 0px;
      }

      .cls-2 {
        fill: #2a955e;
      }

      .cls-7 {
        fill: #fff;
        font-family: MontserratRoman-SemiBold, Montserrat;
        font-size: 71.09px;
        font-variation-settings: 'wght' 600;
        font-weight: 600;
      }

      .cls-3 {
        fill: #0e8084;
      }

      .cls-8 {
        clip-path: url(#clippath);
      }

      .cls-4 {
        fill: #39b9c4;
      }

      .cls-5 {
        fill: #1aabb2;
      }

      .cls-6 {
        fill: #16979a;
      }
    </style>
    <clipPath id="clippath">
      <ellipse class="cls-1" cx="463.44" cy="71" rx="66.93" ry="63.25"/>
    </clipPath>
  </defs>
  <text class="cls-7" transform="translate(7.79 92.01)"><tspan x="0" y="0">donauSoft</tspan></text>
  <g class="cls-8">
    <g>
      <path class="cls-2" d="M506.56,82.76c-6.07,0-12.14,0-18.21,0-5.38,0-10.56-1.1-15.59-2.89-3.35-1.19-3.6-1.8-2.98-5.28.51-2.86-.84-5.02-2.9-6.66-1.59-1.27-1.22-1.87.2-2.81,12.9-8.53,26.79-14.91,41.64-19.2,4.39-1.27,8.85-2.2,13.33-3.11,1.17-.24,1.84-.07,2.44,1.18,5.59,11.65,7.22,23.82,5.19,36.55-.27,1.68-.79,2.33-2.65,2.29-6.82-.14-13.64-.06-20.45-.06h0Z"/>
      <path class="cls-2" d="M510.27,25.42c-16.66-1.78-47.35,12.69-47.73,12.87-10.01,4.69-19.4,10.43-28.23,17.07-.7.53-1.27.54-2.05.23-9.46-3.83-19.19-6.78-29.2-8.78-1.17-.23-1.37-.63-.86-1.63,5.57-10.81,7.99-23.16,19.11-28.55,3.77-1.83,13.27-10.56,17.1-8.88,9.32-5.95,28.72-6.5,36.29.16,2.27-5.09,49.12,18.71,35.56,17.52Z"/>
      <path class="cls-4" d="M439.77,100.23c-3.92-.85-7.58-2.31-10.75-4.83-3.39-2.69-3.3-6,.21-8.53,2.92-2.1,6.34-3.02,9.7-4.04,3.1-.94,6.08-2.14,8.7-4.08,5.12-3.8,5.55-8.06,1.3-12.74-.29-.32-.59-.63-1.08-1.15,2.2-.36,3.86.51,5.6,1.02,2.89.86,5.65,2,8.15,3.7,2.58,1.76,3,3.19,1.96,6.14-.83,2.37-.09,4.43,2.34,6.18,4,2.89,8.68,3.96,13.41,4.83,3.83.71,7.71.99,11.62.98,11.62-.05,23.24.02,34.86-.05,1.79,0,2.28.36,1.55,2.12-1.44,3.44-2.39,7.09-4.7,10.13-.19.02-.37.04-.56.07-6.59-.05-13.17-.1-19.76-.15-.11-1.77.59-4.18-2.29-4.17-2.37,0-4.78-.3-7.08-.12-6.44.53-12.87.06-19.31.26-.59.02-1.3.07-1.44-.73-.23-1.36-1.26-1.05-2.1-1.05-9.3-.01-18.6.03-27.9-.04-1.95-.02-2.39.87-2.5,2.57-.08,1.25.97,2.46.07,3.69Z"/>
      <path class="cls-4" d="M405.48,102.18c-2.82-3.95-4.44-8.46-6.08-12.97-.39-1.08-.06-1.51,1.09-1.51,6.67.02,13.35.01,20.02-.01,1.17,0,1.44.46,1.08,1.52-1.09,3.26.17,5.89,2.36,8.17,4.29,4.45,9.91,6.37,15.69,7.78,7.09,1.73,14.31,2.39,21.61,2.34,9.67-.06,19.35-.02,29.02.03,5.73.03,11.35.74,16.68,3.06,5.54,2.4,5.68,3.06,1.16,6.96-1.63,1.41-3.2,2.92-5.15,3.94-4.14.06-8.24-.75-12.39-.47-.1-.36-.29-.73-.27-1.08.2-2.92-1.54-3.05-3.84-3.03-11.85.09-23.69.04-35.54.04-1.65,0-3.3-.01-4.95,0-.95,0-1.56-.43-1.2-1.35.92-2.32-.46-2.27-2.07-2.26-8.62.03-17.25,0-25.87.02-.79,0-1.67-.3-2.33.44-2.21-2.02-4.12-4.29-5.8-6.76,5.1-.13,10.23.29,15.31-.53-1.22-1.02-2.68-.97-4.03-1.26-1.15-.25-2.63-.67-2.59-1.76.09-2.42-1.41-1.83-2.68-1.84-2.1-.02-4.2-.05-6.29.02-1,.03-2.12-.43-2.97.51Z"/>
      <path class="cls-2" d="M410.96,82.77c-3.82,0-7.65-.03-11.47.02-1.11.01-1.81-.14-2.02-1.45-1.57-9.53-1.27-18.95,1.41-28.27.4-1.39.94-1.83,2.51-1.52,12.48,2.45,24.51,6.22,35.92,11.86,2.55,1.26,5.03,2.7,7.06,4.75,2.49,2.52,2.3,4.84-.48,7.01-2.24,1.74-4.91,2.54-7.56,3.33-3.95,1.18-7.92,2.27-11.7,3.93-.73.32-1.45.31-2.2.31-3.82,0-7.65,0-11.47,0Z"/>
      <path class="cls-2" d="M521.05,38.02c-21.69,3.89-41.02,12.2-58.7,24.42-1.13.78-2,.84-3.24.3-5.38-2.35-11.08-3.64-16.82-4.73-.58-.11-1.15-.28-1.79-.44.3-.95,1.09-1.3,1.7-1.72,14.21-9.8,29.33-17.79,46.05-22.39,7.99-2.19,16.14-3.25,24.47-2.55,1.63.14,2.82.64,3.83,1.91,1.34,1.68,2.81,3.27,4.5,5.21Z"/>
      <path class="cls-3" d="M492.38,127.69c-5.81,3.22-12.13,4.92-18.63,5.83-18.7,2.6-35.76-1.68-51.12-12.67-.3-.22-.57-.48-.86-.72.55-.75,1.37-.47,2.07-.47,9.48,0,18.97.04,28.45.07.55,1.41-1.14,3.2.08,4.13,1.14.88,2.99.27,4.53.23,8.52,0,17.04.01,25.57.02,3.33-.69,5.84,1.48,8.67,2.53.51.19,1.25.2,1.25,1.05Z"/>
      <path class="cls-5" d="M452.29,119.72c-9.48-.03-18.97-.06-28.45-.07-.7,0-1.52-.28-2.07.47-2.71-1.77-5.08-3.91-7.23-6.32.66-.75,1.54-.44,2.33-.44,8.62-.02,17.25,0,25.87-.02,1.61,0,2.99-.06,2.07,2.26-.37.93.25,1.36,1.2,1.35,1.65-.02,3.3,0,4.95,0,11.85,0,23.69.05,35.54-.04,2.3-.02,4.04.11,3.84,3.03-.02.35.17.72.27,1.08-1.84.88-3.8.31-5.7.39-2.81.11-2.81.04-2.44,2.69-8.52,0-17.04-.01-25.57-.02q-.14-4.57-4.6-4.37Z"/>
      <path class="cls-5" d="M439.77,100.23c.89-1.24-.16-2.44-.07-3.69.11-1.7.55-2.58,2.5-2.57,9.3.08,18.6.03,27.9.04.84,0,1.87-.31,2.1,1.05.13.8.84.75,1.44.73,6.43-.2,12.86.26,19.31-.26,2.3-.19,4.71.12,7.08.12,2.88,0,2.19,2.4,2.29,4.17-2.7.02-5.4.04-8.09.06-1.65,0-3.29-.03-4.94-.02-.51,0-1.43.05-1.24.56.76,2.11-1.38,1.34-1.92,2.11-2.41.33-4.75-.41-7.14-.41-7.49,0-14.98,0-22.47.02-.79,0-1.66-.29-2.35.39-.47-.02-.93-.05-1.4-.07-1-.39-1.94-1.29-3.11-.39-.31-.03-.63-.05-.94-.08-1.87-1.1-3.95-1.14-6.03-1.15-1.03.08-1.98-.25-2.93-.61ZM483.66,101.11c.31-.05.52-.23.54-.54.02-.31-.17-.59-.49-.51-.23.06-.49.33-.56.55-.09.31.19.48.5.5Z"/>
      <path class="cls-3" d="M494.22,99.87c2.7-.02,5.4-.04,8.09-.06,6.59.05,13.17.1,19.76.15.11.12.22.24.33.36-1.63,3.31-3.9,6.18-6.27,8.97-.38.44-.67,1.01-1.41.37-5.64-4.82-12.61-5.81-19.6-6.71.23-1.18-1.2-1.89-.9-3.09Z"/>
      <path class="cls-6" d="M482.46,124.11c-.37-2.65-.37-2.58,2.44-2.69,1.9-.08,3.85.49,5.7-.39,4.15-.27,8.25.53,12.39.47-3.25,2.54-6.64,4.86-10.61,6.19,0-.84-.74-.86-1.25-1.05-2.83-1.05-5.33-3.22-8.67-2.53Z"/>
      <path class="cls-5" d="M405.48,102.18c.85-.94,1.97-.48,2.97-.51,2.1-.07,4.2-.04,6.29-.02,1.27.01,2.77-.57,2.68,1.84-.04,1.09,1.44,1.52,2.59,1.76,1.35.29,2.8.24,4.03,1.26-5.09.83-10.21.4-15.31.53-1.3-1.48-2.4-3.09-3.25-4.87Z"/>
      <path class="cls-4" d="M454.17,102.52c.69-.69,1.56-.39,2.35-.39,7.49-.02,14.98,0,22.47-.02,2.39,0,4.73.74,7.14.41,1.94.03,3.88.06,5.82.09.01.09.01.17.01.26-11.86,0-23.72,0-35.57-.02-.74,0-1.47-.21-2.21-.32Z"/>
      <path class="cls-6" d="M491.94,102.61c-1.94-.03-3.88-.06-5.82-.09.54-.77,2.68,0,1.92-2.11-.19-.51.74-.56,1.24-.56,1.65,0,3.29.01,4.94.02-.3,1.2,1.13,1.91.9,3.09-.32,0-.64,0-.96-.01-.66-.63-1.46-.32-2.21-.34Z"/>
      <path class="cls-4" d="M442.7,100.83c2.08.01,4.15.05,6.03,1.15-2.05-.17-4.1-.35-6.03-1.15Z"/>
      <path class="cls-4" d="M449.66,102.07c1.16-.9,2.1,0,3.11.39-1.07.12-2.1-.02-3.11-.39Z"/>
      <path class="cls-5" d="M491.94,102.61c.75.02,1.56-.29,2.21.34-.74-.03-1.47-.05-2.2-.08,0-.09,0-.17-.01-.26Z"/>
      <path class="cls-6" d="M522.4,100.33c-.11-.12-.22-.24-.33-.36.19-.02.37-.04.56-.07-.08.14-.15.29-.23.43Z"/>
      <path class="cls-6" d="M452.29,119.72q4.47-.21,4.6,4.37c-1.54.04-3.39.64-4.53-.23-1.21-.93.47-2.72-.08-4.13Z"/>
      <path class="cls-4" d="M483.66,101.11c-.32-.02-.59-.19-.5-.5.06-.23.33-.49.56-.55.31-.08.5.2.49.51-.02.31-.23.49-.54.54Z"/>
    </g>
  </g>
</svg>