<?xml version="1.0" encoding="UTF-8"?>
<svg xmlns="http://www.w3.org/2000/svg" xmlns:xlink="http://www.w3.org/1999/xlink" viewBox="0 0 973.96 742.91">
  <defs>
    <style>
      .cls-1, .cls-2 {
        fill: #39b9c4;
      }

      .cls-3 {
        fill: none;
      }

      .cls-3, .cls-4, .cls-5, .cls-2, .cls-6, .cls-7, .cls-8 {
        stroke-width: 0px;
      }

      .cls-9 {
        letter-spacing: .01em;
      }

      .cls-9, .cls-10, .cls-4, .cls-11 {
        fill: #2a955e;
      }

      .cls-12 {
        clip-path: url(#clippath-1);
      }

      .cls-10 {
        letter-spacing: 0em;
      }

      .cls-5 {
        fill: #0e8084;
      }

      .cls-13 {
        clip-path: url(#clippath);
      }

      .cls-6 {
        fill: #1aabb2;
      }

      .cls-14 {
        fill: #000;
        font-size: 86.97px;
      }

      .cls-14, .cls-15 {
        font-family: MyriadPro-Regular, 'Myriad Pro';
      }

      .cls-16 {
        letter-spacing: .01em;
      }

      .cls-7 {
        fill: #16979a;
      }

      .cls-15 {
        font-size: 50.78px;
      }

      .cls-8 {
        fill: url(#Unbenannter_Verlauf_10);
      }
    </style>
    <clipPath id="clippath">
      <ellipse class="cls-3" cx="388" cy="369.67" rx="111.46" ry="105.34"/>
    </clipPath>
    <linearGradient id="Unbenannter_Verlauf_10" data-name="Unbenannter Verlauf 10" x1="285.65" y1="285.17" x2="458.41" y2="285.17" gradientUnits="userSpaceOnUse">
      <stop offset="0" stop-color="#f28e59"/>
      <stop offset=".09" stop-color="#f08f54"/>
      <stop offset=".2" stop-color="#eb9346"/>
      <stop offset=".32" stop-color="#e39a2f"/>
      <stop offset=".43" stop-color="#d8a30e"/>
      <stop offset=".48" stop-color="#d4a702"/>
      <stop offset="1" stop-color="#fcbf0a"/>
    </linearGradient>
    <clipPath id="clippath-1">
      <ellipse class="cls-3" cx="906.9" cy="679.66" rx="66.93" ry="63.25"/>
    </clipPath>
  </defs>
  <g id="Ebene_1" data-name="Ebene 1">
    <g>
      <path class="cls-4" d="M462.47,133.38c-10.11,0-20.22,0-30.32,0-8.95,0-17.59-1.82-25.97-4.81-5.58-1.99-5.99-3.01-4.96-8.79.84-4.76-1.4-8.36-4.83-11.09-2.65-2.12-2.03-3.11.34-4.67,21.48-14.21,44.61-24.83,69.34-31.98,7.31-2.11,14.75-3.67,22.2-5.19,1.94-.39,3.06-.12,4.06,1.96,9.31,19.4,12.03,39.67,8.64,60.86-.45,2.79-1.31,3.88-4.42,3.82-11.35-.23-22.71-.09-34.07-.09v-.02Z"/>
      <path class="cls-4" d="M390.66,57.44c0,1.51-.87,1.59-1.5,1.89-16.68,7.82-32.31,17.36-47.01,28.43-1.16.87-2.12.9-3.41.38-15.75-6.38-31.96-11.29-48.63-14.62-1.95-.39-2.28-1.05-1.42-2.71,9.27-18,21.95-32.7,40.47-41.68,6.28-3.05,12.88-3.24,19.25-.46,15.51,6.78,28.68,17.08,41.29,28.16.38.33.85.54.98.62Z"/>
      <path class="cls-2" d="M351.24,162.48c-6.54-1.42-12.63-3.85-17.91-8.04-5.64-4.48-5.49-10,.35-14.2,4.86-3.49,10.56-5.02,16.16-6.73,5.17-1.57,10.12-3.57,14.48-6.8,8.53-6.33,9.24-13.42,2.17-21.22-.48-.53-.98-1.04-1.8-1.92,3.66-.6,6.43.84,9.32,1.7,4.82,1.42,9.42,3.33,13.57,6.16,4.29,2.93,4.99,5.31,3.26,10.23-1.39,3.94-.14,7.37,3.9,10.29,6.66,4.81,14.46,6.59,22.33,8.05,6.39,1.19,12.84,1.65,19.35,1.63,19.35-.08,38.71.03,58.06-.08,2.98-.02,3.8.6,2.58,3.52-2.4,5.72-3.98,11.81-7.82,16.87-.31.04-.62.07-.94.11-10.97-.09-21.94-.17-32.9-.26-.17-2.95.98-6.95-3.82-6.95-3.95,0-7.96-.51-11.79-.19-10.73.88-21.44.1-32.15.44-.99.03-2.17.11-2.39-1.21-.38-2.27-2.1-1.74-3.5-1.75-15.49-.02-30.98.06-46.46-.07-3.25-.03-3.97,1.44-4.16,4.28-.14,2.08,1.61,4.09.12,6.15Z"/>
      <path class="cls-2" d="M294.13,165.73c-4.7-6.58-7.4-14.09-10.12-21.6-.65-1.79-.1-2.52,1.82-2.51,11.12.03,22.23.02,33.35-.02,1.95,0,2.39.77,1.8,2.54-1.82,5.42.28,9.82,3.94,13.61,7.15,7.42,16.5,10.61,26.14,12.96,11.8,2.88,23.83,3.97,35.99,3.9,16.11-.1,32.23-.04,48.34.05,9.54.05,18.9,1.24,27.78,5.09,9.22,4,9.46,5.09,1.93,11.6-2.72,2.35-5.34,4.87-8.57,6.56-6.89.1-13.73-1.24-20.63-.79-.16-.6-.49-1.21-.45-1.8.34-4.87-2.56-5.08-6.39-5.05-19.73.15-39.46.07-59.19.07-2.75,0-5.49-.02-8.24,0-1.58.01-2.6-.71-1.99-2.25,1.53-3.86-.77-3.78-3.44-3.77-14.36.05-28.72,0-43.08.04-1.31,0-2.78-.5-3.88.74-3.67-3.36-6.86-7.14-9.67-11.25,8.49-.22,17.03.49,25.5-.89-2.04-1.7-4.46-1.62-6.71-2.1-1.92-.41-4.39-1.11-4.32-2.93.15-4.02-2.35-3.05-4.47-3.07-3.49-.03-6.99-.09-10.48.03-1.66.06-3.53-.72-4.95.85Z"/>
      <path class="cls-4" d="M303.26,133.4c-6.37,0-12.73-.04-19.1.04-1.84.02-3.01-.23-3.37-2.41-2.62-15.87-2.11-31.56,2.35-47.08.66-2.31,1.56-3.04,4.18-2.53,20.78,4.08,40.82,10.36,59.83,19.76,4.25,2.1,8.38,4.5,11.75,7.91,4.14,4.19,3.83,8.06-.8,11.68-3.73,2.91-8.18,4.23-12.6,5.54-6.57,1.96-13.19,3.79-19.48,6.55-1.21.53-2.42.52-3.66.52-6.37.01-12.73,0-19.1,0Z"/>
      <path class="cls-4" d="M486.6,58.87c-36.12,6.48-68.32,20.31-97.76,40.67-1.89,1.31-3.33,1.4-5.4.5-8.96-3.92-18.45-6.07-28.02-7.88-.97-.18-1.91-.47-2.98-.74.49-1.58,1.81-2.16,2.84-2.87,23.67-16.32,48.84-29.64,76.7-37.29,13.3-3.65,26.88-5.41,40.75-4.25,2.72.23,4.69,1.07,6.37,3.18,2.23,2.81,4.68,5.44,7.5,8.68Z"/>
      <path class="cls-5" d="M438.85,208.21c-9.68,5.36-20.2,8.2-31.03,9.7-31.15,4.33-59.55-2.8-85.13-21.1-.5-.36-.95-.79-1.43-1.19.92-1.25,2.28-.79,3.45-.79,15.8.01,31.59.07,47.38.11.91,2.36-1.89,5.33.13,6.88,1.9,1.46,4.98.45,7.54.39,14.19.01,28.39.02,42.58.03,5.55-1.14,9.72,2.46,14.43,4.21.85.32,2.09.34,2.09,1.75Z"/>
      <path class="cls-6" d="M372.09,194.94c-15.79-.04-31.59-.1-47.38-.11-1.17,0-2.53-.46-3.45.79-4.51-2.94-8.46-6.51-12.04-10.52,1.1-1.24,2.57-.74,3.88-.74,14.36-.03,28.72,0,43.08-.04,2.68,0,4.98-.09,3.44,3.77-.61,1.54.41,2.27,1.99,2.25,2.75-.03,5.49,0,8.24,0,19.73,0,39.46.08,59.19-.07,3.83-.03,6.73.19,6.39,5.05-.04.59.29,1.2.45,1.8-3.07,1.47-6.32.52-9.49.65-4.68.19-4.68.06-4.06,4.48-14.19-.01-28.39-.02-42.58-.03q-.23-7.62-7.67-7.27Z"/>
      <path class="cls-6" d="M351.24,162.48c1.49-2.06-.26-4.07-.12-6.15.19-2.84.91-4.3,4.16-4.28,15.49.13,30.98.05,46.46.07,1.4,0,3.12-.52,3.5,1.75.22,1.33,1.4,1.25,2.39,1.21,10.71-.34,21.42.44,32.15-.44,3.83-.31,7.84.2,11.79.19,4.8,0,3.65,4,3.82,6.95-4.49.03-8.99.07-13.48.1-2.74-.01-5.48-.04-8.22-.03-.85,0-2.38.08-2.07.94,1.27,3.51-2.29,2.23-3.19,3.51-4.01.55-7.91-.68-11.89-.68-12.47.01-24.95-.01-37.42.03-1.32,0-2.77-.49-3.91.66-.77-.04-1.55-.08-2.32-.12-1.67-.64-3.24-2.14-5.18-.64-.52-.04-1.04-.09-1.56-.13-3.12-1.84-6.57-1.9-10.04-1.92-1.72.14-3.3-.42-4.87-1.01ZM424.33,163.95c.52-.08.87-.39.9-.9.03-.52-.29-.99-.81-.85-.38.1-.82.54-.92.92-.15.52.31.8.84.83Z"/>
      <path class="cls-5" d="M441.92,161.89c4.49-.03,8.99-.07,13.48-.1,10.97.09,21.94.17,32.9.26.19.2.37.4.56.61-2.72,5.51-6.49,10.29-10.45,14.93-.63.73-1.11,1.68-2.35.62-9.4-8.03-21-9.68-32.64-11.18.38-1.97-1.99-3.14-1.49-5.14Z"/>
      <path class="cls-7" d="M422.33,202.24c-.62-4.42-.62-4.29,4.06-4.48,3.16-.13,6.42.82,9.49-.65,6.9-.45,13.74.89,20.63.79-5.42,4.23-11.06,8.1-17.66,10.3,0-1.41-1.24-1.43-2.09-1.75-4.71-1.75-8.88-5.36-14.43-4.21Z"/>
      <path class="cls-6" d="M294.13,165.73c1.42-1.57,3.29-.79,4.95-.85,3.49-.12,6.99-.06,10.48-.03,2.12.02,4.62-.95,4.47,3.07-.07,1.82,2.4,2.52,4.32,2.93,2.25.48,4.67.4,6.71,2.1-8.47,1.38-17.01.67-25.5.89-2.16-2.47-3.99-5.15-5.42-8.11Z"/>
      <path class="cls-2" d="M375.21,166.3c1.15-1.14,2.6-.65,3.91-.66,12.47-.04,24.95-.01,37.42-.03,3.98,0,7.88,1.22,11.89.68,3.23.05,6.46.1,9.69.14.02.14.02.29.02.43-19.75,0-39.5,0-59.25-.03-1.23,0-2.45-.35-3.68-.54Z"/>
      <path class="cls-7" d="M438.11,166.44c-3.23-.05-6.46-.1-9.69-.14.9-1.28,4.46,0,3.19-3.51-.31-.86,1.23-.93,2.07-.94,2.74,0,5.48.02,8.22.03-.5,2,1.88,3.17,1.49,5.14-.54,0-1.07-.02-1.61-.02-1.1-1.04-2.44-.53-3.69-.57Z"/>
      <path class="cls-2" d="M356.11,163.49c3.46.02,6.92.09,10.04,1.92-3.41-.28-6.82-.58-10.04-1.92Z"/>
      <path class="cls-2" d="M367.71,165.54c1.94-1.5,3.5,0,5.18.64-1.78.21-3.5-.03-5.18-.64Z"/>
      <path class="cls-6" d="M438.11,166.44c1.25.04,2.59-.48,3.69.57-1.22-.05-2.45-.09-3.67-.14,0-.14,0-.29-.02-.43Z"/>
      <path class="cls-7" d="M488.85,162.65c-.19-.2-.37-.41-.56-.61.31-.04.62-.07.94-.11-.13.24-.25.48-.38.72Z"/>
      <path class="cls-7" d="M372.09,194.94q7.44-.34,7.67,7.27c-2.56.06-5.64,1.07-7.54-.39-2.02-1.55.78-4.53-.13-6.88Z"/>
      <path class="cls-2" d="M424.33,163.95c-.53-.04-.99-.31-.84-.83.1-.38.55-.82.92-.92.52-.14.84.33.81.85-.03.52-.38.82-.9.91Z"/>
      <text class="cls-15" transform="translate(372.55 42.5)"><tspan class="cls-1" x="0" y="0">donau</tspan><tspan class="cls-10" x="137.15" y="0">so</tspan><tspan class="cls-9" x="185.14" y="0">f</tspan><tspan class="cls-11" x="200.53" y="0">t</tspan></text>
    </g>
  </g>
  <g id="Ebene_4" data-name="Ebene 4">
    <g>
      <path class="cls-4" d="M656.69,217.4c10.11,0,20.22,0,30.32,0,8.95,0,17.59-1.82,25.97-4.81,5.58-1.99,5.99-3.01,4.96-8.79-.84-4.76,1.4-8.36,4.83-11.09,2.65-2.12,2.03-3.11-.34-4.67-21.48-14.21-44.61-24.83-69.34-31.98-7.31-2.11-14.75-3.67-22.2-5.19-1.94-.39-3.06-.12-4.06,1.96-9.31,19.4-12.03,39.67-8.64,60.86.45,2.79,1.31,3.88,4.42,3.82,11.35-.23,22.71-.09,34.07-.09v-.02Z"/>
      <path class="cls-4" d="M728.51,141.47c0,1.51.87,1.59,1.5,1.89,16.68,7.82,32.31,17.36,47.01,28.43,1.16.87,2.12.9,3.41.38,15.75-6.38,31.96-11.29,48.63-14.62,1.95-.39,2.28-1.05,1.42-2.71-9.27-18-21.95-32.7-40.47-41.68-6.28-3.05-12.88-3.24-19.25-.46-15.51,6.78-28.68,17.08-41.29,28.16-.38.33-.85.54-.98.62Z"/>
      <path class="cls-2" d="M767.93,246.5c6.54-1.42,12.63-3.85,17.91-8.04,5.64-4.48,5.49-10-.35-14.2-4.86-3.49-10.56-5.02-16.16-6.73-5.17-1.57-10.12-3.57-14.48-6.8-8.53-6.33-9.24-13.42-2.17-21.22.48-.53.98-1.04,1.8-1.92-3.66-.6-6.43.84-9.32,1.7-4.82,1.42-9.42,3.33-13.57,6.16-4.29,2.93-4.99,5.31-3.26,10.23,1.39,3.94.14,7.37-3.9,10.29-6.66,4.81-14.46,6.59-22.33,8.05-6.39,1.19-12.84,1.65-19.35,1.63-19.35-.08-38.71.03-58.06-.08-2.98-.02-3.8.6-2.58,3.52,2.4,5.72,3.98,11.81,7.82,16.87.31.04.62.07.94.11,10.97-.09,21.94-.17,32.9-.26.17-2.95-.98-6.95,3.82-6.95,3.95,0,7.96-.51,11.79-.19,10.73.88,21.44.1,32.15.44.99.03,2.17.11,2.39-1.21.38-2.27,2.1-1.74,3.5-1.75,15.49-.02,30.98.06,46.46-.07,3.25-.03,3.97,1.44,4.16,4.28.14,2.08-1.61,4.09-.12,6.15Z"/>
      <path class="cls-2" d="M825.04,249.75c4.7-6.58,7.4-14.09,10.12-21.6.65-1.79.1-2.52-1.82-2.51-11.12.03-22.23.02-33.35-.02-1.95,0-2.39.77-1.8,2.54,1.82,5.42-.28,9.82-3.94,13.61-7.15,7.42-16.5,10.61-26.14,12.96-11.8,2.88-23.83,3.97-35.99,3.9-16.11-.1-32.23-.04-48.34.05-9.54.05-18.9,1.24-27.78,5.09-9.22,4-9.46,5.09-1.93,11.6,2.72,2.35,5.34,4.87,8.57,6.56,6.89.1,13.73-1.24,20.63-.79.16-.6.49-1.21.45-1.8-.34-4.87,2.56-5.08,6.39-5.05,19.73.15,39.46.07,59.19.07,2.75,0,5.49-.02,8.24,0,1.58.01,2.6-.71,1.99-2.25-1.53-3.86.77-3.78,3.44-3.77,14.36.05,28.72,0,43.08.04,1.31,0,2.78-.5,3.88.74,3.67-3.36,6.86-7.14,9.67-11.25-8.49-.22-17.03.49-25.5-.89,2.04-1.7,4.46-1.62,6.71-2.1,1.92-.41,4.39-1.11,4.32-2.93-.15-4.02,2.35-3.05,4.47-3.07,3.49-.03,6.99-.09,10.48.03,1.66.06,3.53-.72,4.95.85Z"/>
      <path class="cls-4" d="M815.91,217.42c6.37,0,12.73-.04,19.1.04,1.84.02,3.01-.23,3.37-2.41,2.62-15.87,2.11-31.56-2.35-47.08-.66-2.31-1.56-3.04-4.18-2.53-20.78,4.08-40.82,10.36-59.83,19.76-4.25,2.1-8.38,4.5-11.75,7.91-4.14,4.19-3.83,8.06.8,11.68,3.73,2.91,8.18,4.23,12.6,5.54,6.57,1.96,13.19,3.79,19.48,6.55,1.21.53,2.42.52,3.66.52,6.37.01,12.73,0,19.1,0Z"/>
      <path class="cls-4" d="M632.57,142.89c36.12,6.48,68.32,20.31,97.76,40.67,1.89,1.31,3.33,1.4,5.4.5,8.96-3.92,18.45-6.07,28.02-7.88.97-.18,1.91-.47,2.98-.74-.49-1.58-1.81-2.16-2.84-2.87-23.67-16.32-48.84-29.64-76.7-37.29-13.3-3.65-26.88-5.41-40.75-4.25-2.72.23-4.69,1.07-6.37,3.18-2.23,2.81-4.68,5.44-7.5,8.68Z"/>
      <path class="cls-5" d="M680.32,292.23c9.68,5.36,20.2,8.2,31.03,9.7,31.15,4.33,59.55-2.8,85.13-21.1.5-.36.95-.79,1.43-1.19-.92-1.25-2.28-.79-3.45-.79-15.8.01-31.59.07-47.38.11-.91,2.36,1.89,5.33-.13,6.88-1.9,1.46-4.98.45-7.54.39-14.19.01-28.39.02-42.58.03-5.55-1.14-9.72,2.46-14.43,4.21-.85.32-2.09.34-2.09,1.75Z"/>
      <path class="cls-6" d="M747.08,278.96c15.79-.04,31.59-.1,47.38-.11,1.17,0,2.53-.46,3.45.79,4.51-2.94,8.46-6.51,12.04-10.52-1.1-1.24-2.57-.74-3.88-.74-14.36-.03-28.72,0-43.08-.04-2.68,0-4.98-.09-3.44,3.77.61,1.54-.41,2.27-1.99,2.25-2.75-.03-5.49,0-8.24,0-19.73,0-39.46.08-59.19-.07-3.83-.03-6.73.19-6.39,5.05.04.59-.29,1.2-.45,1.8,3.07,1.47,6.32.52,9.49.65,4.68.19,4.68.06,4.06,4.48,14.19-.01,28.39-.02,42.58-.03q.23-7.62,7.67-7.27Z"/>
      <path class="cls-6" d="M763.06,247.51c-3.46.02-6.92.09-10.04,1.92-.52.04-1.04.09-1.56.13-1.94-1.5-3.5,0-5.18.64-.77.04-1.55.08-2.32.12-1.15-1.14-2.6-.65-3.91-.66-12.47-.04-24.95-.01-37.42-.03-3.98,0-7.88,1.22-11.89.68-.9-1.28-4.46,0-3.19-3.51.31-.86-1.23-.93-2.07-.94-2.74,0-5.48.02-8.22.03-4.49-.03-8.99-.07-13.48-.1.17-2.95-.98-6.95,3.82-6.95,3.95,0,7.96-.51,11.79-.19,10.73.88,21.44.1,32.15.44.99.03,2.17.11,2.39-1.21.38-2.27,2.1-1.74,3.5-1.75,15.49-.02,30.98.06,46.46-.07,3.25-.03,3.97,1.44,4.16,4.28.14,2.08-1.61,4.09-.12,6.15-1.57.59-3.15,1.15-4.87,1.01ZM695.67,247.14c-.1-.38-.55-.82-.92-.92-.52-.14-.84.33-.81.85.03.52.38.82.9.9.53-.04.98-.31.84-.83Z"/>
      <path class="cls-5" d="M677.25,245.91c-4.49-.03-8.99-.07-13.48-.1-10.97.09-21.94.17-32.9.26-.19.2-.37.4-.56.61,2.72,5.51,6.49,10.29,10.45,14.93.63.73,1.11,1.68,2.35.62,9.4-8.03,21-9.68,32.64-11.18-.38-1.97,1.99-3.14,1.49-5.14Z"/>
      <path class="cls-7" d="M696.83,286.26c.62-4.42.62-4.29-4.06-4.48-3.16-.13-6.42.82-9.49-.65-6.9-.45-13.74.89-20.63.79,5.42,4.23,11.06,8.1,17.66,10.3,0-1.41,1.24-1.43,2.09-1.75,4.71-1.75,8.88-5.36,14.43-4.21Z"/>
      <path class="cls-6" d="M825.04,249.75c-1.42-1.57-3.29-.79-4.95-.85-3.49-.12-6.99-.06-10.48-.03-2.12.02-4.62-.95-4.47,3.07.07,1.82-2.4,2.52-4.32,2.93-2.25.48-4.67.4-6.71,2.1,8.47,1.38,17.01.67,25.5.89,2.16-2.47,3.99-5.15,5.42-8.11Z"/>
      <path class="cls-2" d="M743.96,250.32c-1.15-1.14-2.6-.65-3.91-.66-12.47-.04-24.95-.01-37.42-.03-3.98,0-7.88,1.22-11.89.68-3.23.05-6.46.1-9.69.14-.02.14-.02.29-.02.43,19.75,0,39.5,0,59.25-.03,1.23,0,2.45-.35,3.68-.54Z"/>
      <path class="cls-7" d="M681.05,250.46c3.23-.05,6.46-.1,9.69-.14-.9-1.28-4.46,0-3.19-3.51.31-.86-1.23-.93-2.07-.94-2.74,0-5.48.02-8.22.03.5,2-1.88,3.17-1.49,5.14.54,0,1.07-.02,1.61-.02,1.1-1.04,2.44-.53,3.69-.57Z"/>
      <path class="cls-2" d="M763.06,247.51c-3.46.02-6.92.09-10.04,1.92,3.41-.28,6.82-.58,10.04-1.92Z"/>
      <path class="cls-2" d="M751.46,249.56c-1.94-1.5-3.5,0-5.18.64,1.78.21,3.5-.03,5.18-.64Z"/>
      <path class="cls-6" d="M681.05,250.46c-1.25.04-2.59-.48-3.69.57,1.22-.05,2.45-.09,3.67-.14,0-.14,0-.29.02-.43Z"/>
      <path class="cls-7" d="M630.31,246.67c.19-.2.37-.41.56-.61-.31-.04-.62-.07-.94-.11.13.24.25.48.38.72Z"/>
      <path class="cls-7" d="M747.08,278.96q-7.44-.34-7.67,7.27c2.56.06,5.64,1.07,7.54-.39,2.02-1.55-.78-4.53.13-6.88Z"/>
      <path class="cls-2" d="M694.83,247.97c.53-.04.99-.31.84-.83-.1-.38-.55-.82-.92-.92-.52-.14-.84.33-.81.85.03.52.38.82.9.91Z"/>
    </g>
    <text class="cls-15" transform="translate(538.64 122.92)"><tspan class="cls-1" x="0" y="0">donau</tspan><tspan class="cls-10" x="137.15" y="0">so</tspan><tspan class="cls-9" x="185.14" y="0">f</tspan><tspan class="cls-11" x="200.53" y="0">t</tspan></text>
  </g>
  <g id="Ebene_2" data-name="Ebene 2">
    <path class="cls-4" d="M115.5,268.66c0,1.51-.87,1.59-1.5,1.89-16.68,7.82-32.31,17.36-47.01,28.43-1.16.87-2.12.9-3.41.38-15.75-6.38-31.96-11.29-48.63-14.62-1.95-.39-2.28-1.05-1.42-2.71,9.27-18,21.95-32.7,40.47-41.68,6.28-3.05,12.88-3.24,19.25-.46,15.51,6.78,28.68,17.08,41.29,28.16.38.33.85.54.98.62Z"/>
    <path class="cls-4" d="M134.16,330.53c-36.12,6.48-68.32,20.31-97.76,40.67-1.89,1.31-3.33,1.4-5.4.5-8.96-3.92-18.45-6.07-28.02-7.88-.97-.18-1.91-.47-2.98-.74.49-1.58,1.81-2.16,2.84-2.87,23.67-16.32,48.84-29.64,76.7-37.29,13.3-3.65,26.88-5.41,40.75-4.25,2.72.23,4.69,1.07,6.37,3.18,2.23,2.81,4.68,5.44,7.5,8.68Z"/>
    <g class="cls-13">
      <g>
        <ellipse class="cls-8" cx="372.03" cy="285.17" rx="86.38" ry="68.04"/>
        <path class="cls-4" d="M459.79,389.84c-10.11,0-20.22,0-30.32,0-8.95,0-17.59-1.82-25.97-4.81-5.58-1.99-5.99-3.01-4.96-8.79.84-4.76-1.4-8.36-4.83-11.09-2.65-2.12-4.4-1.54-2.03-3.11,51.78-9.71,77.24-46.16,101.97-53.31,36.08-49.49-7.67,13.85-.22,12.33,1.94-.39-4.78,2.13-3.78,4.21,9.31,19.4,12.03,39.67,8.64,60.86-.45,2.79-1.31,3.88-4.42,3.82-11.35-.23-22.71-.09-34.07-.09v-.02Z"/>
        <path class="cls-2" d="M348.56,418.94c-6.54-1.42-12.63-3.85-17.91-8.04-5.64-4.48-5.49-10,.35-14.2,4.86-3.49,10.56-5.02,16.16-6.73,5.17-1.57,10.12-3.57,14.48-6.8,8.53-6.33,9.24-13.42,2.17-21.22-.48-.53-.98-1.04-1.8-1.92,3.66-.6,6.43.84,9.32,1.7,4.82,1.42,9.42,3.33,13.57,6.16,4.29,2.93,4.99,5.31,3.26,10.23-1.39,3.94-.14,7.37,3.9,10.29,6.66,4.81,14.46,6.59,22.33,8.05,6.39,1.19,12.84,1.65,19.35,1.63,19.35-.08,38.71.03,58.06-.08,2.98-.02,3.8.6,2.58,3.52-2.4,5.72-3.98,11.81-7.82,16.87-.31.04-.62.07-.94.11-10.97-.09-21.94-.17-32.9-.26-.17-2.95.98-6.95-3.82-6.95-3.95,0-7.96-.51-11.79-.19-10.73.88-21.44.1-32.15.44-.99.03-2.17.11-2.39-1.21-.38-2.27-2.1-1.74-3.5-1.75-15.49-.02-30.98.06-46.46-.07-3.25-.03-3.97,1.44-4.16,4.28-.14,2.08,1.61,4.09.12,6.15Z"/>
        <path class="cls-2" d="M291.45,422.2c-4.7-6.58-7.4-14.09-10.12-21.6-.65-1.79-.1-2.52,1.82-2.51,11.12.03,22.23.02,33.35-.02,1.95,0,2.39.77,1.8,2.54-1.82,5.42.28,9.82,3.94,13.61,7.15,7.42,16.5,10.61,26.14,12.96,11.8,2.88,23.83,3.97,35.99,3.9,16.11-.1,32.23-.04,48.34.05,9.54.05,18.9,1.24,27.78,5.09,9.22,4,9.46,5.09,1.93,11.6-2.72,2.35-5.34,4.87-8.57,6.56-6.89.1-13.73-1.24-20.63-.79-.16-.6-.49-1.21-.45-1.8.34-4.87-2.56-5.08-6.39-5.05-19.73.15-39.46.07-59.19.07-2.75,0-5.49-.02-8.24,0-1.58.01-2.6-.71-1.99-2.25,1.53-3.86-.77-3.78-3.44-3.77-14.36.05-28.72,0-43.08.04-1.31,0-2.78-.5-3.88.74-3.67-3.36-6.86-7.14-9.67-11.25,8.49-.22,17.03.49,25.5-.89-2.04-1.7-4.46-1.62-6.71-2.1-1.92-.41-4.39-1.11-4.32-2.93.15-4.02-2.35-3.05-4.47-3.07-3.49-.03-6.99-.09-10.48.03-1.66.06-3.53-.72-4.95.85Z"/>
        <path class="cls-4" d="M300.58,389.86c-6.37,0-12.73-.04-19.1.04-1.84.02-3.01-.23-3.37-2.41-2.62-15.87-2.11-31.56,2.35-47.08.66-2.31-13.81-16.12-11.18-15.61,20.78,4.08,56.19,23.45,75.19,32.84,4.25,2.1,8.38,4.5,11.75,7.91,4.14,4.19,3.83,8.06-.8,11.68-3.73,2.91-8.18,4.23-12.6,5.54-6.57,1.96-13.19,3.79-19.48,6.55-1.21.53-2.42.52-3.66.52-6.37.01-12.73,0-19.1,0Z"/>
        <path class="cls-5" d="M436.17,464.67c-9.68,5.36-20.2,8.2-31.03,9.7-31.15,4.33-59.55-2.8-85.13-21.1-.5-.36-.95-.79-1.43-1.19.92-1.25,2.28-.79,3.45-.79,15.8.01,31.59.07,47.38.11.91,2.36-1.89,5.33.13,6.88,1.9,1.46,4.98.45,7.54.39,14.19.01,28.39.02,42.58.03,5.55-1.14,9.72,2.46,14.43,4.21.85.32,2.09.34,2.09,1.75Z"/>
        <path class="cls-6" d="M369.41,451.4c-15.79-.04-31.59-.1-47.38-.11-1.17,0-2.53-.46-3.45.79-4.51-2.94-8.46-6.51-12.04-10.52,1.1-1.24,2.57-.74,3.88-.74,14.36-.03,28.72,0,43.08-.04,2.68,0,4.98-.09,3.44,3.77-.61,1.54.41,2.27,1.99,2.25,2.75-.03,5.49,0,8.24,0,19.73,0,39.46.08,59.19-.07,3.83-.03,6.73.19,6.39,5.05-.04.59.29,1.2.45,1.8-3.07,1.47-6.32.52-9.49.65-4.68.19-4.68.06-4.06,4.48-14.19-.01-28.39-.02-42.58-.03q-.23-7.62-7.67-7.27Z"/>
        <path class="cls-5" d="M439.24,418.35c4.49-.03,8.99-.07,13.48-.1,10.97.09,21.94.17,32.9.26.19.2.37.4.56.61-2.72,5.51-6.49,10.29-10.45,14.93-.63.73-1.11,1.68-2.35.62-9.4-8.03-21-9.68-32.64-11.18.38-1.97-1.99-3.14-1.49-5.14Z"/>
        <path class="cls-7" d="M419.65,458.71c-.62-4.42-.62-4.29,4.06-4.48,3.16-.13,6.42.82,9.49-.65,6.9-.45,13.74.89,20.63.79-5.42,4.23-11.06,8.1-17.66,10.3,0-1.41-1.24-1.43-2.09-1.75-4.71-1.75-8.88-5.36-14.43-4.21Z"/>
        <path class="cls-6" d="M291.45,422.2c1.42-1.57,3.29-.79,4.95-.85,3.49-.12,6.99-.06,10.48-.03,2.12.02,4.62-.95,4.47,3.07-.07,1.82,2.4,2.52,4.32,2.93,2.25.48,4.67.4,6.71,2.1-8.47,1.38-17.01.67-25.5.89-2.16-2.47-3.99-5.15-5.42-8.11Z"/>
        <path class="cls-2" d="M372.53,422.76c1.15-1.14,2.6-.65,3.91-.66,12.47-.04,24.95-.01,37.42-.03,3.98,0,7.88,1.22,11.89.68,3.23.05,6.46.1,9.69.14.02.14.02.29.02.43-19.75,0-39.5,0-59.25-.03-1.23,0-2.45-.35-3.68-.54Z"/>
        <path class="cls-7" d="M435.44,422.9c-3.23-.05-6.46-.1-9.69-.14.9-1.28,4.46,0,3.19-3.51-.31-.86,1.23-.93,2.07-.94,2.74,0,5.48.02,8.22.03-.5,2,1.88,3.17,1.49,5.14-.54,0-1.07-.02-1.61-.02-1.1-1.04-2.44-.53-3.69-.57Z"/>
        <path class="cls-2" d="M353.43,419.95c3.46.02,6.92.09,10.04,1.92-3.41-.28-6.82-.58-10.04-1.92Z"/>
        <path class="cls-2" d="M365.03,422c1.94-1.5,3.5,0,5.18.64-1.78.21-3.5-.03-5.18-.64Z"/>
        <path class="cls-6" d="M435.44,422.9c1.25.04,2.59-.48,3.69.57-1.22-.05-2.45-.09-3.67-.14,0-.14,0-.29-.02-.43Z"/>
        <path class="cls-7" d="M486.17,419.11c-.19-.2-.37-.41-.56-.61.31-.04.62-.07.94-.11-.13.24-.25.48-.38.72Z"/>
        <path class="cls-7" d="M369.41,451.4q7.44-.34,7.67,7.27c-2.56.06-5.64,1.07-7.54-.39-2.02-1.55.78-4.53-.13-6.88Z"/>
        <path class="cls-2" d="M421.65,420.41c-.53-.04-.99-.31-.84-.83.1-.38.55-.82.92-.92.52-.14.84.33.81.85-.03.52-.38.82-.9.91Z"/>
      </g>
    </g>
    <path class="cls-6" d="M348.56,418.94c1.49-2.06-.26-4.07-.12-6.15.19-2.84.91-4.3,4.16-4.28,15.49.13,30.98.05,46.46.07,1.4,0,3.12-.52,3.5,1.75.22,1.33,1.4,1.25,2.39,1.21,10.71-.34,21.42.44,32.15-.44,3.83-.31,7.84.2,11.79.19,4.8,0,3.65,4,3.82,6.95-4.49.03-8.99.07-13.48.1-2.74-.01-5.48-.04-8.22-.03-.85,0-2.38.08-2.07.94,1.27,3.51-2.29,2.23-3.19,3.51-4.01.55-7.91-.68-11.89-.68-12.47.01-24.95-.01-37.42.03-1.32,0-2.77-.49-3.91.66-.77-.04-1.55-.08-2.32-.12-1.67-.64-3.24-2.14-5.18-.64-.52-.04-1.04-.09-1.56-.13-3.12-1.84-6.57-1.9-10.04-1.92-1.72.14-3.3-.42-4.87-1.01ZM421.65,420.41c.52-.08.87-.39.9-.9.03-.52-.29-.99-.81-.85-.38.1-.82.54-.92.92-.15.52.31.8.84.83Z"/>
  </g>
  <g id="Ebene_3" data-name="Ebene 3">
    <text class="cls-14" transform="translate(452.72 705.18)"><tspan x="0" y="0">donauso</tspan><tspan class="cls-16" x="317.08" y="0">f</tspan><tspan x="343.43" y="0">t</tspan></text>
    <g class="cls-12">
      <g>
        <path class="cls-4" d="M950.01,691.42c-6.07,0-12.14,0-18.21,0-5.38,0-10.56-1.1-15.59-2.89-3.35-1.19-3.6-1.8-2.98-5.28.51-2.86-.84-5.02-2.9-6.66-1.59-1.27-1.22-1.87.2-2.81,12.9-8.53,26.79-14.91,41.64-19.2,4.39-1.27,8.85-2.2,13.33-3.11,1.17-.24,1.84-.07,2.44,1.18,5.59,11.65,7.22,23.82,5.19,36.55-.27,1.68-.79,2.33-2.65,2.29-6.82-.14-13.64-.06-20.45-.06h0Z"/>
        <path class="cls-4" d="M953.73,634.08c-16.66-1.78-47.35,12.69-47.73,12.87-10.01,4.69-19.4,10.43-28.23,17.07-.7.53-1.27.54-2.05.23-9.46-3.83-19.19-6.78-29.2-8.78-1.17-.23-1.37-.63-.86-1.63,5.57-10.81,7.99-23.16,19.11-28.55,3.77-1.83,13.27-10.56,17.1-8.88,9.32-5.95,28.72-6.5,36.29.16,2.27-5.09,49.12,18.71,35.56,17.52Z"/>
        <path class="cls-2" d="M883.22,708.89c-3.92-.85-7.58-2.31-10.75-4.83-3.39-2.69-3.3-6,.21-8.53,2.92-2.1,6.34-3.02,9.7-4.04,3.1-.94,6.08-2.14,8.7-4.08,5.12-3.8,5.55-8.06,1.3-12.74-.29-.32-.59-.63-1.08-1.15,2.2-.36,3.86.51,5.6,1.02,2.89.86,5.65,2,8.15,3.7,2.58,1.76,3,3.19,1.96,6.14-.83,2.37-.09,4.43,2.34,6.18,4,2.89,8.68,3.96,13.41,4.83,3.83.71,7.71.99,11.62.98,11.62-.05,23.24.02,34.86-.05,1.79,0,2.28.36,1.55,2.12-1.44,3.44-2.39,7.09-4.7,10.13-.19.02-.37.04-.56.07-6.59-.05-13.17-.1-19.76-.15-.11-1.77.59-4.18-2.29-4.17-2.37,0-4.78-.3-7.08-.12-6.44.53-12.87.06-19.31.26-.59.02-1.3.07-1.44-.73-.23-1.36-1.26-1.05-2.1-1.05-9.3-.01-18.6.03-27.9-.04-1.95-.02-2.39.87-2.5,2.57-.08,1.25.97,2.46.07,3.69Z"/>
        <path class="cls-2" d="M848.93,710.84c-2.82-3.95-4.44-8.46-6.08-12.97-.39-1.08-.06-1.51,1.09-1.51,6.67.02,13.35.01,20.02-.01,1.17,0,1.44.46,1.08,1.52-1.09,3.26.17,5.89,2.36,8.17,4.29,4.45,9.91,6.37,15.69,7.78,7.09,1.73,14.31,2.39,21.61,2.34,9.67-.06,19.35-.02,29.02.03,5.73.03,11.35.74,16.68,3.06,5.54,2.4,5.68,3.06,1.16,6.96-1.63,1.41-3.2,2.92-5.15,3.94-4.14.06-8.24-.75-12.39-.47-.1-.36-.29-.73-.27-1.08.2-2.92-1.54-3.05-3.84-3.03-11.85.09-23.69.04-35.54.04-1.65,0-3.3-.01-4.95,0-.95,0-1.56-.43-1.2-1.35.92-2.32-.46-2.27-2.07-2.26-8.62.03-17.25,0-25.87.02-.79,0-1.67-.3-2.33.44-2.21-2.02-4.12-4.29-5.8-6.76,5.1-.13,10.23.29,15.31-.53-1.22-1.02-2.68-.97-4.03-1.26-1.15-.25-2.63-.67-2.59-1.76.09-2.42-1.41-1.83-2.68-1.84-2.1-.02-4.2-.05-6.29.02-1,.03-2.12-.43-2.97.51Z"/>
        <path class="cls-4" d="M854.41,691.43c-3.82,0-7.65-.03-11.47.02-1.11.01-1.81-.14-2.02-1.45-1.57-9.53-1.27-18.95,1.41-28.27.4-1.39.94-1.83,2.51-1.52,12.48,2.45,24.51,6.22,35.92,11.86,2.55,1.26,5.03,2.7,7.06,4.75,2.49,2.52,2.3,4.84-.48,7.01-2.24,1.74-4.91,2.54-7.56,3.33-3.95,1.18-7.92,2.27-11.7,3.93-.73.32-1.45.31-2.2.31-3.82,0-7.65,0-11.47,0Z"/>
        <path class="cls-4" d="M964.5,646.68c-21.69,3.89-41.02,12.2-58.7,24.42-1.13.78-2,.84-3.24.3-5.38-2.35-11.08-3.64-16.82-4.73-.58-.11-1.15-.28-1.79-.44.3-.95,1.09-1.3,1.7-1.72,14.21-9.8,29.33-17.79,46.05-22.39,7.99-2.19,16.14-3.25,24.47-2.55,1.63.14,2.82.64,3.83,1.91,1.34,1.68,2.81,3.27,4.5,5.21Z"/>
        <path class="cls-5" d="M935.83,736.34c-5.81,3.22-12.13,4.92-18.63,5.83-18.7,2.6-35.76-1.68-51.12-12.67-.3-.22-.57-.48-.86-.72.55-.75,1.37-.47,2.07-.47,9.48,0,18.97.04,28.45.07.55,1.41-1.14,3.2.08,4.13,1.14.88,2.99.27,4.53.23,8.52,0,17.04.01,25.57.02,3.33-.69,5.84,1.48,8.67,2.53.51.19,1.25.2,1.25,1.05Z"/>
        <path class="cls-6" d="M895.74,728.38c-9.48-.03-18.97-.06-28.45-.07-.7,0-1.52-.28-2.07.47-2.71-1.77-5.08-3.91-7.23-6.32.66-.75,1.54-.44,2.33-.44,8.62-.02,17.25,0,25.87-.02,1.61,0,2.99-.06,2.07,2.26-.37.93.25,1.36,1.2,1.35,1.65-.02,3.3,0,4.95,0,11.85,0,23.69.05,35.54-.04,2.3-.02,4.04.11,3.84,3.03-.02.35.17.72.27,1.08-1.84.88-3.8.31-5.7.39-2.81.11-2.81.04-2.44,2.69-8.52,0-17.04-.01-25.57-.02q-.14-4.57-4.6-4.37Z"/>
        <path class="cls-6" d="M883.22,708.89c.89-1.24-.16-2.44-.07-3.69.11-1.7.55-2.58,2.5-2.57,9.3.08,18.6.03,27.9.04.84,0,1.87-.31,2.1,1.05.13.8.84.75,1.44.73,6.43-.2,12.86.26,19.31-.26,2.3-.19,4.71.12,7.08.12,2.88,0,2.19,2.4,2.29,4.17-2.7.02-5.4.04-8.09.06-1.65,0-3.29-.03-4.94-.02-.51,0-1.43.05-1.24.56.76,2.11-1.38,1.34-1.92,2.11-2.41.33-4.75-.41-7.14-.41-7.49,0-14.98,0-22.47.02-.79,0-1.66-.29-2.35.39-.47-.02-.93-.05-1.4-.07-1-.39-1.94-1.29-3.11-.39-.31-.03-.63-.05-.94-.08-1.87-1.1-3.95-1.14-6.03-1.15-1.03.08-1.98-.25-2.93-.61ZM927.11,709.77c.31-.05.52-.23.54-.54.02-.31-.17-.59-.49-.51-.23.06-.49.33-.56.55-.09.31.19.48.5.5Z"/>
        <path class="cls-5" d="M937.67,708.53c2.7-.02,5.4-.04,8.09-.06,6.59.05,13.17.1,19.76.15.11.12.22.24.33.36-1.63,3.31-3.9,6.18-6.27,8.97-.38.44-.67,1.01-1.41.37-5.64-4.82-12.61-5.81-19.6-6.71.23-1.18-1.2-1.89-.9-3.09Z"/>
        <path class="cls-7" d="M925.91,732.76c-.37-2.65-.37-2.58,2.44-2.69,1.9-.08,3.85.49,5.7-.39,4.15-.27,8.25.53,12.39.47-3.25,2.54-6.64,4.86-10.61,6.19,0-.84-.74-.86-1.25-1.05-2.83-1.05-5.33-3.22-8.67-2.53Z"/>
        <path class="cls-6" d="M848.93,710.84c.85-.94,1.97-.48,2.97-.51,2.1-.07,4.2-.04,6.29-.02,1.27.01,2.77-.57,2.68,1.84-.04,1.09,1.44,1.52,2.59,1.76,1.35.29,2.8.24,4.03,1.26-5.09.83-10.21.4-15.31.53-1.3-1.48-2.4-3.09-3.25-4.87Z"/>
        <path class="cls-2" d="M897.62,711.18c.69-.69,1.56-.39,2.35-.39,7.49-.02,14.98,0,22.47-.02,2.39,0,4.73.74,7.14.41,1.94.03,3.88.06,5.82.09.01.09.01.17.01.26-11.86,0-23.72,0-35.57-.02-.74,0-1.47-.21-2.21-.32Z"/>
        <path class="cls-7" d="M935.39,711.27c-1.94-.03-3.88-.06-5.82-.09.54-.77,2.68,0,1.92-2.11-.19-.51.74-.56,1.24-.56,1.65,0,3.29.01,4.94.02-.3,1.2,1.13,1.91.9,3.09-.32,0-.64,0-.96-.01-.66-.63-1.46-.32-2.21-.34Z"/>
        <path class="cls-2" d="M886.15,709.49c2.08.01,4.15.05,6.03,1.15-2.05-.17-4.1-.35-6.03-1.15Z"/>
        <path class="cls-2" d="M893.11,710.72c1.16-.9,2.1,0,3.11.39-1.07.12-2.1-.02-3.11-.39Z"/>
        <path class="cls-6" d="M935.39,711.27c.75.02,1.56-.29,2.21.34-.74-.03-1.47-.05-2.2-.08,0-.09,0-.17-.01-.26Z"/>
        <path class="cls-7" d="M965.86,708.99c-.11-.12-.22-.24-.33-.36.19-.02.37-.04.56-.07-.08.14-.15.29-.23.43Z"/>
        <path class="cls-7" d="M895.74,728.38q4.47-.21,4.6,4.37c-1.54.04-3.39.64-4.53-.23-1.21-.93.47-2.72-.08-4.13Z"/>
        <path class="cls-2" d="M927.11,709.77c-.32-.02-.59-.19-.5-.5.06-.23.33-.49.56-.55.31-.08.5.2.49.51-.02.31-.23.49-.54.54Z"/>
      </g>
    </g>
  </g>
</svg>