<?xml version="1.0" encoding="UTF-8"?>
<svg id="Logo_white_letters" data-name="Logo white letters" xmlns="http://www.w3.org/2000/svg" xmlns:xlink="http://www.w3.org/1999/xlink" viewBox="0 0 540 140">
  <defs>
    <style>
      .cls-1 {
        fill: url(#Unbenannter_Verlauf_276);
      }

      .cls-1, .cls-2, .cls-3, .cls-4, .cls-5, .cls-6, .cls-7 {
        stroke-width: 0px;
      }

      .cls-2 {
        fill: url(#Unbenannter_Verlauf_274);
      }

      .cls-3 {
        fill: url(#Unbenannter_Verlauf_105);
      }

      .cls-8 {
        letter-spacing: 0em;
      }

      .cls-8, .cls-9, .cls-10 {
        fill: #fff;
      }

      .cls-11 {
        fill: #39b9c4;
      }

      .cls-4 {
        fill: url(#Unbenannter_Verlauf_287);
      }

      .cls-5 {
        fill: none;
      }

      .cls-12 {
        font-family: MontserratRoman-SemiBold, Montserrat;
        font-size: 71.09px;
        font-variation-settings: 'wght' 600;
        font-weight: 600;
      }

      .cls-13 {
        clip-path: url(#clippath);
      }

      .cls-10 {
        letter-spacing: .05em;
      }

      .cls-6 {
        fill: url(#Unbenannter_Verlauf_259);
      }

      .cls-7 {
        fill: url(#Unbenannter_Verlauf_108);
      }

      .cls-14 {
        fill: #2a955e;
      }
    </style>
    <clipPath id="clippath">
      <ellipse class="cls-5" cx="462.66" cy="68.02" rx="65.97" ry="62.34"/>
    </clipPath>
    <linearGradient id="Unbenannter_Verlauf_108" data-name="Unbenannter Verlauf 108" x1="457.99" y1="55.6" x2="501.37" y2="130.73" gradientUnits="userSpaceOnUse">
      <stop offset=".09" stop-color="#fffbdd"/>
      <stop offset=".09" stop-color="#fdfadc"/>
      <stop offset=".13" stop-color="#d4ecd7"/>
      <stop offset=".18" stop-color="#b0e0d3"/>
      <stop offset=".23" stop-color="#8fd5ce"/>
      <stop offset=".28" stop-color="#74cccb"/>
      <stop offset=".34" stop-color="#5ec5c8"/>
      <stop offset=".42" stop-color="#4dbfc6"/>
      <stop offset=".51" stop-color="#41bbc5"/>
      <stop offset=".63" stop-color="#3ab9c4"/>
      <stop offset=".97" stop-color="#39b9c4"/>
    </linearGradient>
    <linearGradient id="Unbenannter_Verlauf_287" data-name="Unbenannter Verlauf 287" x1="467.44" y1="79.87" x2="434.71" y2="126.62" gradientUnits="userSpaceOnUse">
      <stop offset="0" stop-color="#f6f6d5"/>
      <stop offset="0" stop-color="#eff3d1"/>
      <stop offset=".03" stop-color="#c6dfb9"/>
      <stop offset=".06" stop-color="#a1cda3"/>
      <stop offset=".09" stop-color="#80be90"/>
      <stop offset=".13" stop-color="#65b180"/>
      <stop offset=".17" stop-color="#4fa673"/>
      <stop offset=".21" stop-color="#3e9e69"/>
      <stop offset=".27" stop-color="#329963"/>
      <stop offset=".35" stop-color="#2b955f"/>
      <stop offset=".58" stop-color="#2a955e"/>
    </linearGradient>
    <linearGradient id="Unbenannter_Verlauf_259" data-name="Unbenannter Verlauf 259" x1="474.05" y1="84.04" x2="587.73" y2="18.4" gradientUnits="userSpaceOnUse">
      <stop offset="0" stop-color="#f6f6d5"/>
      <stop offset="0" stop-color="#eff3d1"/>
      <stop offset=".01" stop-color="#c6dfb9"/>
      <stop offset=".03" stop-color="#a1cda3"/>
      <stop offset=".04" stop-color="#80be90"/>
      <stop offset=".06" stop-color="#65b180"/>
      <stop offset=".07" stop-color="#4fa673"/>
      <stop offset=".09" stop-color="#3e9e69"/>
      <stop offset=".12" stop-color="#329963"/>
      <stop offset=".15" stop-color="#2b955f"/>
      <stop offset=".25" stop-color="#2a955e"/>
    </linearGradient>
    <linearGradient id="Unbenannter_Verlauf_276" data-name="Unbenannter Verlauf 276" x1="423.37" y1="54.26" x2="415.27" y2="84.47" gradientUnits="userSpaceOnUse">
      <stop offset="0" stop-color="#fffbdd"/>
      <stop offset="0" stop-color="#eff3d3"/>
      <stop offset=".03" stop-color="#c6e0bb"/>
      <stop offset=".06" stop-color="#a0cda4"/>
      <stop offset=".09" stop-color="#80be91"/>
      <stop offset=".12" stop-color="#65b181"/>
      <stop offset=".16" stop-color="#4fa674"/>
      <stop offset=".2" stop-color="#3e9e6a"/>
      <stop offset=".26" stop-color="#329963"/>
      <stop offset=".33" stop-color="#2b955f"/>
      <stop offset=".54" stop-color="#2a955e"/>
    </linearGradient>
    <linearGradient id="Unbenannter_Verlauf_274" data-name="Unbenannter Verlauf 274" x1="470.92" y1="32.21" x2="502.59" y2="77.44" gradientUnits="userSpaceOnUse">
      <stop offset="0" stop-color="#fffbdd"/>
      <stop offset="0" stop-color="#eff3d3"/>
      <stop offset=".03" stop-color="#c6e0bb"/>
      <stop offset=".05" stop-color="#a0cda4"/>
      <stop offset=".08" stop-color="#80be91"/>
      <stop offset=".11" stop-color="#65b181"/>
      <stop offset=".14" stop-color="#4fa674"/>
      <stop offset=".18" stop-color="#3e9e6a"/>
      <stop offset=".23" stop-color="#329963"/>
      <stop offset=".3" stop-color="#2b955f"/>
      <stop offset=".48" stop-color="#2a955e"/>
    </linearGradient>
    <linearGradient id="Unbenannter_Verlauf_105" data-name="Unbenannter Verlauf 105" x1="457.46" y1="46.16" x2="450.64" y2="7.49" gradientUnits="userSpaceOnUse">
      <stop offset=".1" stop-color="#fffbdd"/>
      <stop offset=".16" stop-color="#edf4df"/>
      <stop offset=".28" stop-color="#d7ebe2"/>
      <stop offset=".4" stop-color="#c8e5e4"/>
      <stop offset=".54" stop-color="#bee2e5"/>
      <stop offset=".73" stop-color="#bce1e6"/>
    </linearGradient>
  </defs>
  <text class="cls-12" transform="translate(3.21 91.24)"><tspan class="cls-9" x="0" y="0">d</tspan><tspan class="cls-14" x="48.84" y="0">o</tspan><tspan class="cls-8" x="94.7" y="0">nauS</tspan><tspan class="cls-11" x="279.69" y="0">o</tspan><tspan class="cls-10" x="325.54" y="0">ft</tspan></text>
  <g class="cls-13">
    <path id="Donau_Mitte" data-name="Donau Mitte" class="cls-7" d="M447.08,61.9s1.32-.82,9.17,2.27c4.43,1.74,6.06,3.33,6.93,5.14.71,1.49-1.28,4.67-.62,6.2.67,1.53,3.41,5.13,8.74,6.51,5.33,1.38,7.95,2.47,14.18,2.59s28.4.11,28.4.11l10.82-.03s2.71-.34,2.1,1.41c-.62,1.75-1.11,4.67-5.44,11.8-2.51,4.53-6.5,8.97-6.5,8.97,0,0-.08.48-.92-.17-1.23-.95-5.22-3.87-8.74-4.7-3.86-.91-7.76-1.91-12.66-2.05-4.91-.14-36.62-.07-36.62-.07,0,0-14.07-1.29-19.42-3.26-5.67-2.09-8.62-3.8-10.17-6.36-1.29-2.13-.03-4.27.96-5.36,1.03-1.13,3.73-2.76,5.73-3.43,6.29-2.08,10.4-3.13,13.71-5.6.4-.3,4.08-2.58,4.33-6.86-.28-1.97-.35-2.72-2.23-5.18-.38-.5-1.74-1.95-1.74-1.95"/>
    <path id="Wiese_unten" data-name="Wiese unten" class="cls-4" d="M459.66,104.56c13.77.1,24.04.14,30.66.09,0,0,1.9-.02,5.37.29,0,0,2.96.35,4.75.82s4.87,1.36,6.86,2.38,4.71,2.07,2.42,4.24-8.94,8.23-15.34,11.23c-6.39,3-13.1,5.76-18.75,6.53s-16.15,2.25-24.96.14-13.17-2.83-19.99-6.92c-6.83-4.09-15.36-9.88-20.63-16.46-5.34-6.67-9.42-14.77-10.08-17.01s-1.34-3.42-1.34-3.42c0,0-.86-1.73,1.09-1.72s10.1,0,10.1,0h7.38s2.45,0,2.45,0c0,0,1.62-.25,1.23,1.35s-.44,2.17-.44,2.17c0,0-.17,1.19.31,2.35s1.63,3.57,4.13,5.37,4.94,3.64,9.17,4.85,9.11,2.61,14.44,3.08,11.18.63,11.18.63Z"/>
    <path id="Wiese_rechts" data-name="Wiese rechts" class="cls-6" d="M526.03,79.86l-24.52-.06s-12.91.01-13.93,0-6.44-.23-9.99-1.22-6.61-1.96-7.26-2.35-1.18-.24-1.38-1.24-.34-.4-.19-1.6.6-3.9-.06-5.15-1.73-2.55-2.38-3.11-2.17-1.48-.49-2.64,9.37-5.91,12.94-7.75,12.78-6.29,18.89-8.43,12.23-3.97,15.04-4.62,9.76-2.11,9.76-2.11c0,0,2.57,4.01,4.12,9.63,1.55,5.62,2.66,8.22,2.83,14.11s.05,9.68-.28,12.2-.35,2.4-.35,2.4c0,0-.07,1.94-2.02,1.92"/>
    <path id="Wiese_Links" data-name="Wiese Links" class="cls-1" d="M401.18,48.71s8.21,1.44,17.18,4.42,16.32,5.95,21.7,9.27,6.99,6.97,3.21,9.7c-2,1.45-3.95,2.21-3.95,2.21,0,0-11.45,3.57-12.82,4.11s-2.2.87-2.2.87c0,0-.55.54-3.35.5s-22.04.06-22.04.06c0,0-1.93.4-2.23-1.6s-1.53-9.51-.7-15.5c.83-5.99-.24-1.83.98-6.75s1.82-6.84,1.89-7.06.41-.5,1.02-.44,1.31.2,1.31.2Z"/>
    <path id="Wiese_rechts-2" data-name="Wiese rechts" class="cls-2" d="M442.13,52.4s14.51-10.11,25.3-14.54,17.72-7.3,24.46-8.46,13.13-2.1,18.63-1.56,4.82,1.57,6.22,3.19,3.1,4.12,3.1,4.12c0,0-11.48,1.93-20.29,5.2s-21.8,8.71-29.56,13.7c-7.57,4.87-8.3,5.3-8.3,5.3,0,0-1.31,1.53-3.9.21-3.32-1.69-12.46-3.67-15.26-4.31l-2.81-.64s.23-.74,1.32-1.47l1.09-.73Z"/>
    <path id="Himmel" class="cls-3" d="M402.83,39.67s5.5-9.98,11.19-15.04,13.68-11.78,22.03-14.59c8.35-2.81,13.4-4.52,23.14-5.1,9.74-.58,17.88,1.24,21.04,2.13,3.16.89,13.72,3.97,20.28,8.67,6.56,4.7,8.47,6.74,8.47,6.74,0,0-7.79-.43-16.13,1.78-8.35,2.21-22.18,6.43-36.02,13.54-10.3,5.29-18.6,10.48-22.7,14.15-1.05.94-1.76.94-2.29.79-.34-.1-.62-.23-.82-.31-3.92-1.52-12.07-4.44-16.32-5.59-4.31-1.16-10.53-2.53-10.53-2.53l-2.24-.46s-1.24-.2-.42-1.56c.9-1.49,1.32-2.63,1.32-2.63Z"/>
  </g>
</svg>